<svg viewBox="0 0 48 48" xmlns="http://www.w3.org/2000/svg">
  <defs>
    <linearGradient id="canva-grad" x1="0%" y1="0%" x2="100%" y2="100%">
      <stop offset="0%" stop-color="#00C4CC"/>
      <stop offset="40%" stop-color="#7B2FF7"/>
      <stop offset="100%" stop-color="#7B2FF7"/>
    </linearGradient>
  </defs>
  <!-- Circle background -->
  <circle fill="url(#canva-grad)" cx="24" cy="24" r="22"/>
  <!-- Stylized C -->
  <path fill="#FFFFFF" d="M27.5 15.5c-5.5 0-10 4-10 9.5s4 8.5 9 8.5c2.5 0 4.5-0.8 6-2.5 0.3-0.4 0.1-0.8-0.3-0.6-1.2 0.6-2.8 1-4.2 1-3.8 0-6.5-2.8-6.5-6.5 0-4.5 3.2-7.5 7-7.5 2 0 3.5 1 4.2 2.5 0.4 0.8 0.3 1.8-0.2 2.8-0.3 0.5 0 0.9 0.5 0.5 1.5-1.2 2.5-3 2.5-5 0-1.2-0.5-2.2-1.2-3C33 14.5 30.5 15.5 27.5 15.5z"/>
</svg>