<svg viewBox="0 0 48 48" xmlns="http://www.w3.org/2000/svg">
  <path fill="#10A37F" d="M44.564 19.642a10.0 10.0 0 0 0-1.031-9.822 12.09 12.09 0 0 0-13.02-5.8A12.13 12.13 0 0 0 9.961 8.364a9.97 9.97 0 0 0-7.995 5.8 12.09 12.09 0 0 0 1.485 14.193 9.97 9.97 0 0 0 1.031 9.822 12.09 12.09 0 0 0 13.02 5.8A10.1 10.1 0 0 0 26.52 48a12.11 12.11 0 0 0 11.544-8.411 9.98 9.98 0 0 0 7.995-5.8 12.11 12.11 0 0 0-1.495-14.147zm-18.044 25.216a8.95 8.95 0 0 1-5.753-2.082l.284-.16 9.557-5.517a1.59 1.59 0 0 0 .785-1.363V22.262l4.04 2.337a.142.142 0 0 1 .076.104v11.165a9.01 9.01 0 0 1-8.989 8.99zM7.217 36.032a8.94 8.94 0 0 1-1.069-6.027l.284.17 9.566 5.517a1.54 1.54 0 0 0 1.561 0l11.686-6.737v4.665a.16.16 0 0 1-.066.123L19.48 39.9a9.0 9.0 0 0 1-12.282-3.293zm-2.516-20.87A8.97 8.97 0 0 1 9.43 11.2v11.32a1.53 1.53 0 0 0 .775 1.344l11.625 6.717-4.04 2.337a.15.15 0 0 1-.142 0l-9.66-5.573a9.01 9.01 0 0 1-3.287-12.183zM38.06 23.112L26.436 16.395l4.04-2.337a.15.15 0 0 1 .142 0l9.66 5.573a9.0 9.0 0 0 1-1.364 16.233V24.456a1.58 1.58 0 0 0-.814-1.344zm4.02-6.05l-.284-.17-9.556-5.557a1.54 1.54 0 0 0-1.561 0L19.002 18.07v-4.665a.16.16 0 0 1 .066-.123l9.66-5.583a9.0 9.0 0 0 1 13.352 9.363zM16.613 25.736l-4.04-2.327a.16.16 0 0 1-.076-.113V12.148a9.0 9.0 0 0 1 14.753-6.907l-.284.16-9.557 5.517a1.59 1.59 0 0 0-.785 1.363l-.011 13.455zm2.195-4.731l5.204-3.0 5.214 3v5.994l-5.195 3-5.214-3z"/>
</svg>