<svg viewBox="0 0 48 48" xmlns="http://www.w3.org/2000/svg">
  <path fill="#6D00CC" d="M26.76 6.996c-.54 0-1.022.38-1.132.93L19.7 37.972a1.156 1.156 0 0 0 .906 1.356l8.19 1.652a1.16 1.16 0 0 0 1.364-.91l5.926-30.042a1.156 1.156 0 0 0-.906-1.356l-8.192-1.652a1.178 1.178 0 0 0-.226-.024zm-11.752.196a1.152 1.152 0 0 0-1.032.636L.124 35.394a1.15 1.15 0 0 0 .512 1.548l7.466 3.754a1.156 1.156 0 0 0 1.55-.516l13.852-27.562a1.154 1.154 0 0 0-.512-1.552l-7.466-3.75a1.142 1.142 0 0 0-.516-.124zm23.48.23a1.152 1.152 0 0 0-1.152 1.152v30.852c0 .636.516 1.156 1.152 1.156h8.356a1.16 1.16 0 0 0 1.156-1.156V8.574a1.156 1.156 0 0 0-1.156-1.152z"/>
</svg>