<svg viewBox="0 0 48 48" xmlns="http://www.w3.org/2000/svg">
  <!-- Midjourney sailboat icon - minimal black -->
  <!-- Star -->
  <polygon fill="#000000" points="24,2 25.5,6 30,7 25.5,8.5 24,13 22.5,8.5 18,7 22.5,6"/>
  <!-- Left sail -->
  <path fill="#000000" d="M23 13L13 30h10V13z"/>
  <!-- Right sail -->
  <path fill="#000000" d="M25 16l7 14h-7V16z" opacity="0.65"/>
  <!-- Hull -->
  <path fill="#000000" d="M10 33c0-1 1-2 2-2h24c1 0 2 1 2 2l-4 8c-0.5 1-1.5 2-3 2H17c-1.5 0-2.5-1-3-2l-4-8z"/>
</svg>