<svg viewBox="0 0 48 48" xmlns="http://www.w3.org/2000/svg">
  <path fill="#20B8CD" d="M44.795 14.179h-4.621V.135l-15.019 12.709V.315h-2.311v12.393L8.981 0v14.179H3.205v20.795h5.776V48l13.864-12.718v12.401h2.311v-12.094l13.864 12.361v-12.976h5.776V14.179zm-6.931-9.062v9.062h-10.71l10.71-9.062zm-26.572.135l9.738 8.927H11.292V5.252zM5.515 32.664V16.49h15.695l-12.23 12.229v3.945H5.515zm5.777 10.081v-7.77h.0002v-5.298l11.553-11.553v14.022l-11.553 10.599zm25.417.05l-11.553-10.302V18.124l11.553 11.553v13.118zm5.776-10.131h-3.466v-3.944L26.79 16.49h15.696v16.174z"/>
</svg>