<svg xmlns="http://www.w3.org/2000/svg" viewBox="0 0 109 113" fill="none">
  <path d="M63.71 110.28c-2.44 3.08-7.59 1.44-7.63-2.43l-.56-53.87h38.18c6.92 0 10.74 8.03 6.36 13.38L63.71 110.28Z" fill="url(#a)"/>
  <path d="M63.71 110.28c-2.44 3.08-7.59 1.44-7.63-2.43l-.56-53.87h38.18c6.92 0 10.74 8.03 6.36 13.38L63.71 110.28Z" fill="url(#b)" fill-opacity=".2"/>
  <path d="M45.27 2.07c2.44-3.08 7.59-1.44 7.63 2.43l.28 53.87H15.53c-6.92 0-10.74-8.03-6.36-13.38L45.27 2.07Z" fill="#3ECF8E"/>
  <defs>
    <linearGradient id="a" x1="53.97" y1="54.97" x2="94.17" y2="71.82" gradientUnits="userSpaceOnUse">
      <stop stop-color="#249361"/>
      <stop offset="1" stop-color="#3ECF8E"/>
    </linearGradient>
    <linearGradient id="b" x1="36.16" y1="30.58" x2="54.48" y2="65.72" gradientUnits="userSpaceOnUse">
      <stop/>
      <stop offset="1" stop-opacity="0"/>
    </linearGradient>
  </defs>
</svg>