<svg xmlns="http://www.w3.org/2000/svg" viewBox="0 0 100 100" fill="none">
  <mask id="a" maskUnits="userSpaceOnUse" x="0" y="0" width="100" height="100">
    <path d="M70.91 99.31a6.26 6.26 0 0 0 4.87-.64l19.89-9.58A6.27 6.27 0 0 0 99 83.42V16.58a6.27 6.27 0 0 0-3.33-5.54L75.78 1.46a6.26 6.26 0 0 0-7.15.87L29.13 38.13 12.07 25.12a4.18 4.18 0 0 0-5.35.27L1.4 30.26a4.18 4.18 0 0 0 0 6.21L16.47 50 1.4 63.53a4.18 4.18 0 0 0 0 6.21l5.32 4.87a4.18 4.18 0 0 0 5.35.27l17.06-13.01 39.5 35.8a6.26 6.26 0 0 0 2.28 1.63ZM75.02 27.3 45.47 50l29.55 22.7V27.3Z" fill="#fff"/>
  </mask>
  <g mask="url(#a)">
    <path d="M95.67 11.04 75.78 1.46a6.26 6.26 0 0 0-7.15.87L1.4 63.53a4.18 4.18 0 0 0 0 6.21l5.32 4.87a4.18 4.18 0 0 0 5.35.27L95.14 18.1A6.27 6.27 0 0 0 99 16.58a6.27 6.27 0 0 0-3.33-5.54Z" fill="#0065A9"/>
    <path d="M95.67 88.96 75.78 98.54a6.26 6.26 0 0 1-7.15-.87L1.4 36.47a4.18 4.18 0 0 1 0-6.21l5.32-4.87a4.18 4.18 0 0 1 5.35-.27L95.14 81.9A6.27 6.27 0 0 1 99 83.42a6.27 6.27 0 0 1-3.33 5.54Z" fill="#007ACC"/>
    <path d="M75.78 98.54a6.26 6.26 0 0 1-7.15-.87c2.66 2.66 7.17.78 7.17-2.98V5.31c0-3.76-4.51-5.64-7.17-2.98a6.26 6.26 0 0 1 7.15-.87l19.89 9.58A6.27 6.27 0 0 1 99 16.58v66.84a6.27 6.27 0 0 1-3.33 5.54L75.78 98.54Z" fill="#1F9CF0"/>
  </g>
</svg>